# xmcd
#
# Track frame offsets:
# 150
# 8947
# 20969
# 30671
# 45844
# 55572
# 63932
# 73538
#
# Disc length: 1131 seconds
#
#
# Revision: 0
# Processed by: cddbd v1.5.2PL0 Copyright (c) Steve Scherf et al.
# Submitted via: FreeRIP 2.951 
#
DISCID=5e046908
DTITLE=Michael Bublé - Totally Bublé
DYEAR=2003
DGENRE=swing
TTITLE0=That's how it goes
TTITLE1=Peroxide swing
TTITLE2=Me and Mrs You
TTITLE3=Love at first sight
TTITLE4=Anyone to love
TTITLE5=Guess I'm falling 4 U
TTITLE6=Tell him he's yours
TTITLE7=Down With Love (bonus)
EXTD=
EXTT0=
EXTT1=
EXTT2=
EXTT3=
EXTT4=
EXTT5=
EXTT6=
EXTT7=
PLAYORDER=
